<svg width="43" height="43" viewBox="0 0 43 43" fill="none" xmlns="http://www.w3.org/2000/svg">
<path d="M2.91993 8.84336C2.73946 8.92539 2.47696 9.12226 2.3293 9.26992C1.77969 9.85234 1.81251 9.15508 1.81251 19.8437C1.81251 30.5324 1.77969 29.8352 2.3293 30.4176C2.90352 31.0164 2.68204 31 8.1043 31H12.9606L12.8375 31.4348C12.6488 32.05 12.3453 32.575 11.8449 33.1328L11.3938 33.625H10.6801C9.90899 33.625 9.76133 33.6906 9.6629 34.1008C9.60548 34.3551 9.74493 34.757 9.9336 34.8555C10.032 34.9047 11.7137 34.9375 14.3141 34.9375C18.4402 34.9375 18.5551 34.9293 18.7109 34.7734C18.9324 34.552 18.9324 34.0105 18.7109 33.7891C18.5551 33.6332 18.4402 33.625 15.9219 33.625H13.2887L13.5512 33.2477C13.8875 32.7637 14.1828 32.009 14.2649 31.4676L14.3223 31.041L16.4633 31.0164C18.5059 31 18.6125 30.9918 18.7602 30.8277C18.9652 30.6062 18.9652 30.0812 18.7602 29.8598C18.6043 29.6875 18.5961 29.6875 11.2133 29.6875C4.33907 29.6875 3.80587 29.6793 3.53516 29.5398C3.3711 29.4578 3.23165 29.3184 3.19884 29.1953C3.16602 29.0805 3.14141 28.2602 3.13321 27.366L3.12501 25.75H10.8606C18.5961 25.75 18.6043 25.75 18.7602 25.5777C18.9652 25.3562 18.9652 24.8312 18.7602 24.6098C18.6043 24.4375 18.5961 24.4375 10.8606 24.4375H3.12501L3.14141 17.4238L3.16602 10.4184L3.35469 10.2297L3.54337 10.041H16.2418C28.5301 10.041 28.9566 10.0492 29.1207 10.1969C29.2109 10.2789 29.3094 10.5004 29.3422 10.7055C29.4078 11.1566 29.6047 11.3371 30.0313 11.3371C30.5234 11.3371 30.6875 11.1484 30.6875 10.5824C30.6875 10.0328 30.4906 9.56523 30.1051 9.20429C29.5145 8.64648 30.5727 8.6875 16.2336 8.6875C3.75665 8.6875 3.23165 8.6957 2.91993 8.84336Z" fill="white"/>
<path d="M21.7707 12.625C21.2949 12.7234 20.9996 12.8957 20.6633 13.2648C20.1137 13.8718 20.1465 13.2648 20.1465 23.7812C20.1465 34.3058 20.1137 33.6906 20.6715 34.3058C21.2539 34.9539 21.0734 34.9375 25.9953 34.9375C30.2527 34.9375 30.3594 34.9375 30.5234 34.7734C30.6301 34.6668 30.6875 34.5027 30.6875 34.2812C30.6875 34.0597 30.6301 33.8957 30.5234 33.789C30.3676 33.6332 30.2527 33.625 26.2824 33.625C22.5582 33.625 22.1727 33.6086 21.9102 33.4773C21.7461 33.3953 21.6066 33.2558 21.5738 33.1328C21.541 33.0179 21.5164 32.1976 21.5082 31.3035L21.5 29.6875H25.9297C30.2527 29.6875 30.3594 29.6875 30.5234 29.5234C30.6301 29.4168 30.6875 29.2527 30.6875 29.0312C30.6875 28.8097 30.6301 28.6457 30.5234 28.539C30.3594 28.375 30.2527 28.375 25.9297 28.375H21.5V22.4687V16.5625H28.0625H34.625V17.7109C34.625 18.7527 34.6414 18.8757 34.7891 19.0234C35.0024 19.2367 35.5191 19.2449 35.7816 19.0316L35.9785 18.8757V16.5461C35.9785 14.7906 35.9539 14.1507 35.8637 13.9046C35.716 13.4699 35.232 12.9613 34.7891 12.7562C34.4281 12.5839 34.3215 12.5839 28.2676 12.5675C24.8879 12.5675 21.9594 12.5921 21.7707 12.625ZM34.3789 14.1507C34.4938 14.2656 34.5676 14.4707 34.6004 14.7824L34.6496 15.25H28.0625H21.4754L21.5246 14.7906C21.5738 14.3066 21.7297 14.0523 22.025 13.9949C22.1152 13.9703 24.9043 13.9621 28.202 13.9703C34.1738 13.9785 34.2149 13.9785 34.3789 14.1507Z" fill="white"/>
<path d="M4.76565 13.962C4.49494 14.0933 4.36369 14.5034 4.36369 15.2089C4.35549 15.9061 4.47033 16.3655 4.68361 16.4804C4.94611 16.6198 5.40549 16.5788 5.58596 16.3983C5.73361 16.2507 5.75002 16.1276 5.75002 15.2991C5.75002 14.7823 5.72541 14.2983 5.7008 14.2245C5.64338 14.0851 5.25783 13.8554 5.07736 13.8554C5.01994 13.8554 4.88049 13.9046 4.76565 13.962Z" fill="white"/>
<path d="M4.74922 17.9159C4.41289 18.1046 4.35547 18.4655 4.35547 20.4999C4.35547 22.4194 4.42109 22.9034 4.68359 23.0429C4.94609 23.1823 5.40547 23.1413 5.58594 22.9608C5.7418 22.805 5.75 22.6901 5.75 20.5491C5.75 19.3104 5.72539 18.2358 5.70078 18.162C5.64336 18.0226 5.24961 17.7929 5.07734 17.7929C5.01992 17.8011 4.87227 17.8503 4.74922 17.9159Z" fill="white"/>
<path d="M23.1242 17.9242C22.8125 18.0883 22.6977 18.5559 22.7551 19.4664C22.8043 20.3195 22.9274 20.5 23.477 20.5C24.0348 20.5 24.125 20.3277 24.125 19.2367C24.125 18.7199 24.1004 18.2359 24.0758 18.1621C24.0184 18.0227 23.6246 17.793 23.4524 17.793C23.3949 17.8012 23.2473 17.8504 23.1242 17.9242Z" fill="white"/>
<path d="M33.1074 20.6559C32.9269 20.7379 32.6644 20.9348 32.5168 21.0824C31.9754 21.6484 32 21.3777 32 27.7352C32 34.1746 31.9754 33.8383 32.5824 34.4207C33.1238 34.9375 33.1484 34.9375 36.6101 34.9375C40.1129 34.9375 40.1211 34.9293 40.6707 34.3551C41.2121 33.7891 41.1875 34.0516 41.1875 27.7188C41.1875 21.3859 41.2121 21.6484 40.6707 21.0824C40.1211 20.5082 40.1129 20.5 36.5937 20.5C33.6898 20.5 33.4109 20.5164 33.1074 20.6559ZM39.6371 22.0504C39.7437 22.1816 39.793 22.3703 39.793 22.682V23.125H36.5937H33.3945V22.6492C33.3945 22.1406 33.5012 21.9602 33.8457 21.8699C33.9359 21.8453 35.2402 21.8371 36.7414 21.8371L39.4812 21.8535L39.6371 22.0504ZM39.793 27.6777V30.918H36.5937H33.3945V27.6777V24.4375H36.5937H39.793V27.6777ZM39.793 32.7309C39.793 32.9605 39.7601 33.2148 39.7109 33.2969C39.5551 33.584 39.1941 33.625 36.5609 33.625C33.4355 33.625 33.4519 33.625 33.4109 32.8211L33.3863 32.3125H36.5937H39.793V32.7309Z" fill="white"/>
<path d="M23.1734 21.8452C22.7715 22.0175 22.7305 22.2718 22.7305 24.3882C22.7305 26.3569 22.7961 26.8409 23.0586 26.9804C23.3211 27.1198 23.7805 27.0788 23.9609 26.8983C24.1168 26.7425 24.125 26.6276 24.125 24.4374C24.125 22.2472 24.1168 22.1323 23.9609 21.9765C23.8707 21.8862 23.7641 21.8124 23.723 21.8124C23.682 21.8124 23.6 21.796 23.5344 21.7714C23.477 21.755 23.3129 21.7878 23.1734 21.8452Z" fill="white"/>
<path d="M15.0277 27.2758C14.9293 27.3988 14.8555 27.5957 14.8555 27.7188C14.8555 27.8418 14.9293 28.0387 15.0277 28.1617C15.1918 28.375 15.2082 28.375 16.2172 28.375C17.4066 28.375 17.5625 28.3012 17.5625 27.7188C17.5625 27.1363 17.4066 27.0625 16.2172 27.0625C15.2082 27.0625 15.1918 27.0625 15.0277 27.2758Z" fill="white"/>
<path d="M27.2012 31C26.873 31.1066 26.75 31.2953 26.75 31.6727C26.75 32.2223 26.9223 32.3125 28.0297 32.3125C28.5465 32.3125 29.0469 32.2797 29.1289 32.2305C29.3176 32.132 29.4488 31.7465 29.3996 31.4676C29.3176 31.0656 29.1125 30.9672 28.243 30.9426C27.8082 30.9344 27.3406 30.959 27.2012 31Z" fill="white"/>
</svg>
