<svg width="43" height="43" viewBox="0 0 43 43" fill="none" xmlns="http://www.w3.org/2000/svg">
<g clip-path="url(#clip0_2895_203212)">
<path d="M20.7289 1.6C20.1219 1.82149 19.6625 2.24805 19.3098 2.9043C19.0145 3.45391 18.9899 4.50391 19.2524 5.08633C19.5067 5.62774 19.966 6.10352 20.4828 6.35781L20.9258 6.57109V7.79336V9.01562H17.9727H15.0196V7.08789V5.15195L14.8145 4.95508L14.6176 4.75H11.9598H9.29377L9.08049 4.30703C8.62932 3.38008 7.75978 2.83867 6.73439 2.83047C5.68439 2.83047 4.80666 3.38008 4.35549 4.29883C4.08478 4.86485 4.06838 5.92305 4.32267 6.48086C4.57697 7.03047 5.03635 7.49805 5.56955 7.76055C5.9715 7.95742 6.13557 7.99023 6.73439 7.98203C7.30041 7.98203 7.51369 7.94102 7.84182 7.78516C8.35861 7.53086 8.88361 6.99766 9.08049 6.51367L9.23635 6.14453H11.4348H13.625V7.57188V8.99922L12.3781 9.03203C11.1641 9.05664 11.1067 9.06485 10.6883 9.29453C10.1551 9.58984 9.81057 9.96719 9.53166 10.5742L9.31838 11.0254L9.29377 16.0457L9.26916 21.0742H7.84182H6.42267L6.32424 20.7871C6.17658 20.3523 5.49572 19.6469 4.99533 19.4254C4.34728 19.1383 3.41213 19.1465 2.78049 19.4582C1.00861 20.3277 0.811737 22.8297 2.42775 23.9453C2.90353 24.2734 3.68283 24.4703 4.22424 24.4047C5.11838 24.2898 6.11916 23.527 6.33244 22.7887L6.43088 22.4688H7.85002H9.26916L9.29377 27.5383L9.31838 32.5996L9.58908 33.1492C9.9008 33.7891 10.3602 34.2074 11 34.4535C11.3281 34.5766 11.6235 34.6094 12.5176 34.6094H13.625V35.9629V37.3164L11.4348 37.3082H9.23635L9.00666 36.816C8.09611 34.9129 5.23322 35.0113 4.32267 36.9801C4.06017 37.5625 4.08478 38.6043 4.3801 39.1785C4.63439 39.6707 5.08557 40.1383 5.52033 40.3598C6.14377 40.6797 7.11994 40.6961 7.82541 40.409C8.26838 40.2203 8.83439 39.6461 9.07228 39.1539L9.28557 38.7109H11.9516H14.6176L14.8145 38.5059L15.0196 38.309V36.4551V34.6094H17.9727H20.9258V35.8316V37.0539L20.4828 37.2672C19.966 37.5215 19.5067 37.9973 19.2524 38.5387C19.1211 38.834 19.0801 39.0719 19.0883 39.6133C19.0883 40.4664 19.3098 40.9504 19.9414 41.5246C20.4418 41.9758 20.934 42.1562 21.6641 42.1562C22.4598 42.1562 22.9356 41.9676 23.477 41.4262C24.0266 40.8684 24.2481 40.3352 24.2399 39.523C24.2399 38.5223 23.5672 37.5215 22.6731 37.1852L22.3203 37.0457V35.8316V34.6094H25.6754H29.0387L29.0633 36.4469C29.0879 38.268 29.0879 38.2926 29.2848 38.4977L29.4817 38.7109H32.1559H34.8301L35.0106 39.0965C35.2895 39.7035 35.6504 40.0727 36.2164 40.3516C36.6594 40.573 36.8235 40.6059 37.3649 40.6059C38.4313 40.6059 39.2434 40.1137 39.711 39.1867C40.1867 38.227 39.9981 36.9801 39.2598 36.2336C38.2508 35.2082 36.643 35.1672 35.6094 36.1352C35.4043 36.332 35.1418 36.6766 35.0352 36.9062L34.8465 37.3164H32.6399H30.4414V35.9629V34.6094H31.1633C32.1805 34.6094 32.5742 34.4617 33.1977 33.8383C34.0098 33.0262 33.9688 33.3461 33.9688 27.4973V22.4688H35.2649H36.5692L36.6676 22.7887C36.8809 23.527 37.8817 24.2898 38.7758 24.4047C39.3172 24.4703 40.0965 24.2734 40.5723 23.9453C42.1883 22.8297 41.9914 20.3277 40.2196 19.4582C39.5879 19.1465 38.6528 19.1383 38.0047 19.4254C37.5043 19.6469 36.8235 20.3523 36.6758 20.7871L36.5774 21.0742H35.2731H33.9688L33.9524 15.9637L33.9278 10.8613L33.7391 10.4758C33.493 9.9836 33.0008 9.49141 32.5086 9.24532C32.1641 9.08125 31.9836 9.05664 30.8762 9.03203L29.6211 9.00742V7.57188V6.14453H32.6891H35.7571L35.8555 6.43164C36.0031 6.86641 36.684 7.57188 37.1844 7.79336C37.7914 8.06406 38.7594 8.06406 39.3418 7.80156C39.8586 7.56367 40.318 7.1207 40.5969 6.5957C40.7938 6.23477 40.8184 6.09531 40.8184 5.40625C40.8184 4.69258 40.7938 4.58594 40.5805 4.19219C39.5223 2.28086 36.6922 2.40391 35.8801 4.39727L35.7324 4.75H32.1559H28.5793L28.4071 4.93867C28.2348 5.12735 28.2266 5.19297 28.2266 7.07149V9.01562H25.2735H22.3203V7.79336V6.57109L22.6074 6.47266C23.5016 6.17735 24.2399 5.11094 24.2399 4.10196C24.2481 3.28984 24.0266 2.75664 23.477 2.19883C23.1653 1.88711 22.8863 1.69844 22.6156 1.6082C22.1235 1.43594 21.1719 1.43594 20.7289 1.6ZM22.2875 3.02734C22.8863 3.39648 23.0258 4.2332 22.591 4.75821C22.1645 5.25859 21.6313 5.37344 21.0899 5.06992C20.2696 4.61055 20.2367 3.51133 21.0324 3.02734C21.377 2.81406 21.9348 2.81406 22.2875 3.02734ZM7.22658 4.35625C7.69416 4.59414 8.00588 5.15195 7.92385 5.59492C7.84182 5.99688 7.44807 6.44805 7.05432 6.56289C5.84846 6.93203 4.97072 5.30782 5.9551 4.52852C6.43908 4.14297 6.71799 4.10196 7.22658 4.35625ZM38.8906 4.41367C39.6781 4.97149 39.6371 6.0543 38.8004 6.47266C38.4067 6.67773 38.1113 6.67773 37.7422 6.48086C36.9957 6.08711 36.8563 5.16016 37.4551 4.56133C37.8571 4.16758 38.4477 4.10196 38.8906 4.41367ZM31.918 10.5414C32.0738 10.6316 32.2871 10.8285 32.3856 10.9844L32.5742 11.2551V21.8043C32.5742 32.1895 32.5742 32.3617 32.4102 32.6242C32.3199 32.7719 32.1313 32.9605 31.9836 33.0508C31.7211 33.2148 31.5488 33.2148 21.6559 33.2148H11.5988L11.3281 33.0344C11.1805 32.9277 10.9754 32.7391 10.8852 32.616L10.7129 32.3863L10.6883 22.116C10.6719 16.4641 10.6883 11.6898 10.7129 11.493C10.7867 11.009 11.2215 10.525 11.6809 10.4184C11.886 10.3773 15.9055 10.3527 21.8281 10.3527C31.5571 10.3691 31.6309 10.3691 31.918 10.5414ZM4.43752 20.7379C5.34806 21.2137 5.30705 22.4852 4.37189 22.8953C3.78127 23.1578 3.15783 22.9117 2.83791 22.2965C2.559 21.7633 2.8215 21.0332 3.40392 20.7461C3.82228 20.541 4.06838 20.541 4.43752 20.7379ZM39.5879 20.7461C40.1785 21.0332 40.4492 21.7551 40.1621 22.2965C39.8422 22.9117 39.2188 23.1578 38.6281 22.8953C37.693 22.4852 37.652 21.2137 38.5625 20.7379C38.9235 20.541 39.1696 20.541 39.5879 20.7461ZM7.30861 37.0047C7.73517 37.3 7.90744 37.5871 7.90744 37.9973C7.90744 39.1867 6.44728 39.6625 5.73361 38.7027C5.00353 37.7266 6.30783 36.3238 7.30861 37.0047ZM37.9063 36.9719C38.7512 37.3984 38.784 38.5961 37.9637 39.0801C37.4469 39.3836 36.7414 39.1867 36.3641 38.6207C36.2082 38.3992 36.1754 38.2598 36.2082 37.9645C36.2903 37.0785 37.1352 36.5781 37.9063 36.9719ZM22.2383 38.5633C22.6649 38.8586 22.8371 39.1457 22.8371 39.5559C22.8371 40.2449 22.3285 40.7617 21.6477 40.7617C20.7371 40.7617 20.1629 39.8266 20.5977 39.0555C20.9504 38.432 21.7051 38.2023 22.2383 38.5633Z" fill="white"/>
<path d="M19.9086 11.4932C19.7938 11.5998 19.5805 11.9854 19.4328 12.3627L19.1621 13.0436L18.6289 13.2322C18.3336 13.3307 17.8988 13.5193 17.661 13.6424L17.2262 13.8639L16.5617 13.5686C15.4789 13.101 15.4953 13.101 14.2238 14.3725C12.9524 15.6439 12.9524 15.6357 13.4199 16.7186L13.6988 17.383L13.4692 17.8506C13.3379 18.1131 13.1492 18.5561 13.0508 18.8268L12.8703 19.3354L12.1731 19.6061C11.1477 19.9998 11.1641 19.967 11.1641 21.8209C11.1641 23.6584 11.1477 23.6256 12.1977 24.0275L12.8621 24.2736L13.0508 24.7904C13.1492 25.0693 13.3379 25.5123 13.4692 25.7666L13.707 26.2342L13.4199 26.8904C12.9442 27.9732 12.9442 27.9732 14.2238 29.2529C15.4953 30.5244 15.4953 30.5244 16.5453 30.0486L17.1934 29.7533L17.7266 30.0076C18.0219 30.1471 18.4649 30.3357 18.711 30.4178L19.1621 30.5654L19.4328 31.2545C19.5805 31.6318 19.802 32.0256 19.9168 32.1322C20.1219 32.3209 20.1547 32.3209 21.7133 32.2963C23.5672 32.2635 23.477 32.3045 23.8379 31.3283C24.1168 30.5654 24.125 30.5572 24.5516 30.4342C24.7485 30.3768 25.1832 30.1963 25.5195 30.0486L26.143 29.7615L26.7746 30.0568C27.7918 30.5162 27.7672 30.5244 29.0715 29.2119C30.3758 27.8994 30.3594 27.924 29.9082 26.9314L29.6129 26.2916L29.941 25.5533C30.1215 25.1432 30.2938 24.7084 30.3184 24.5854C30.3922 24.2982 30.4332 24.2736 31.1797 23.9947C32.1641 23.6174 32.1231 23.724 32.1231 21.8127C32.1231 19.8932 32.1805 20.0244 31.1223 19.5979L30.4168 19.3107L30.261 18.8678C30.1789 18.6217 29.9985 18.1787 29.8672 17.8752L29.6129 17.3338L29.9 16.6939C30.3594 15.685 30.3758 15.7178 29.0633 14.4053C27.7508 13.101 27.7754 13.1092 26.7418 13.5686L26.102 13.8639L25.6262 13.626C25.3637 13.4947 24.9453 13.3225 24.6992 13.2404C24.4531 13.1666 24.207 13.06 24.1578 13.0025C24.1086 12.9533 23.9692 12.6334 23.8461 12.2971C23.477 11.3045 23.4934 11.3127 21.6641 11.3127C20.1711 11.3127 20.1055 11.3209 19.9086 11.4932ZM22.7387 13.3553C22.8617 13.6834 23.034 14.0279 23.1078 14.11C23.1735 14.1838 23.5016 14.3314 23.8215 14.4299C24.1496 14.5283 24.7402 14.7744 25.134 14.9713C25.5278 15.1682 25.9461 15.3322 26.061 15.3322C26.1676 15.3322 26.5039 15.2174 26.8074 15.0861C27.1027 14.9467 27.3899 14.84 27.4391 14.84C27.4883 14.84 27.7918 15.0943 28.0953 15.4061L28.6613 15.9803L28.407 16.5709C28.2594 16.8908 28.1445 17.26 28.1445 17.3912C28.1445 17.5143 28.3086 17.9572 28.5137 18.3838C28.7188 18.8022 28.9567 19.3846 29.0469 19.6881C29.1371 19.9834 29.2766 20.2869 29.3586 20.3607C29.4324 20.4346 29.777 20.5986 30.1133 20.7217L30.7285 20.9596V21.8045V22.6494L30.0395 22.9201C29.6621 23.076 29.3176 23.24 29.2848 23.3057C29.2438 23.3631 29.1125 23.7076 28.9977 24.0686C28.8746 24.4295 28.6367 25.0119 28.4645 25.3564C28.284 25.7092 28.1445 26.0947 28.1445 26.2178C28.1445 26.349 28.2594 26.7182 28.407 27.0463L28.6695 27.6451L28.1035 28.2111C27.7918 28.5311 27.5047 28.7854 27.4637 28.7854C27.4227 28.7854 27.1438 28.6787 26.832 28.5393C26.5203 28.408 26.1758 28.2932 26.0692 28.2932C25.9543 28.2932 25.5195 28.4572 25.093 28.6623C24.6746 28.8674 24.0922 29.1053 23.7969 29.1955C23.5016 29.2857 23.2145 29.3924 23.157 29.4334C23.0914 29.4662 22.9192 29.8107 22.7715 30.1881L22.4926 30.8771H21.6477H20.811L20.5731 30.2619C20.4418 29.9256 20.2778 29.5811 20.2121 29.5072C20.1465 29.4334 19.8266 29.2939 19.5067 29.1955C19.1785 29.0971 18.5879 28.851 18.186 28.6541C17.784 28.4572 17.3656 28.2932 17.2426 28.2932C17.1277 28.2932 16.7586 28.408 16.4305 28.5557L15.8317 28.8182L15.2656 28.2522C14.9457 27.9404 14.6914 27.6369 14.6914 27.5877C14.6914 27.5385 14.8063 27.2514 14.9375 26.9561C15.077 26.6525 15.1836 26.3162 15.1836 26.2096C15.1836 26.0947 15.036 25.7256 14.8555 25.3893C14.6832 25.0447 14.4371 24.4623 14.3141 24.0768C14.1992 23.6912 14.0434 23.3303 13.9695 23.2564C13.8875 23.1908 13.5512 23.0268 13.2149 22.8955L12.5996 22.6494V21.8045V20.9596L13.2149 20.7217C13.9613 20.4346 14.0926 20.3279 14.2074 19.8932C14.3551 19.3107 14.6094 18.6709 14.9047 18.1459C15.0606 17.867 15.1836 17.5471 15.1836 17.4322C15.1836 17.3092 15.077 16.9729 14.9375 16.6693C14.8063 16.374 14.6914 16.0869 14.6914 16.0377C14.6914 15.9393 15.766 14.84 15.8645 14.84C15.9055 14.84 16.1844 14.9467 16.4961 15.0861C16.8078 15.2174 17.1524 15.3322 17.2672 15.3322C17.382 15.3322 17.7102 15.2092 17.9891 15.0533C18.2762 14.8975 18.8586 14.6514 19.2852 14.5119C19.7117 14.3643 20.1219 14.2002 20.1875 14.1346C20.2613 14.0772 20.4254 13.7326 20.5567 13.3635L20.8027 12.7072L21.6559 12.7236L22.509 12.7482L22.7387 13.3553Z" fill="white"/>
<path d="M20.9094 15.7423C19.4903 15.9145 18.4074 16.4477 17.3574 17.5059C16.5125 18.3427 16.0532 19.1138 15.7496 20.2212C15.5035 21.0989 15.5035 22.477 15.7414 23.3876C16.2746 25.3645 17.8004 26.9723 19.7364 27.6122C20.6879 27.9239 22.1727 27.9731 23.1407 27.727C25.3473 27.1692 27.0207 25.4876 27.5867 23.2645C27.8328 22.3048 27.7754 20.8118 27.4555 19.8848C26.5121 17.104 23.8133 15.3977 20.9094 15.7423ZM21.4836 17.3993C20.9914 18.0145 18.227 21.5583 17.9727 21.911C17.6692 22.3212 17.6528 22.6493 17.9317 22.92C18.1203 23.1169 18.1614 23.1251 19.3344 23.1251C20.2696 23.1251 20.5239 23.1497 20.491 23.2317C20.4746 23.2891 20.3844 23.9864 20.3024 24.7903C20.2203 25.586 20.1219 26.2423 20.0809 26.2423C20.0399 26.2423 19.7446 26.1028 19.4328 25.9388C17.9235 25.1513 16.9473 23.5024 16.9637 21.7716C16.9801 19.2368 18.9489 17.2434 21.6149 17.063C21.7379 17.0548 21.7133 17.1122 21.4836 17.3993ZM23.7067 17.588C24.8633 18.1458 25.8805 19.3845 26.2168 20.6641C26.3645 21.1973 26.3727 22.2063 26.2496 22.8134C25.8313 24.8231 23.6739 26.6032 21.8117 26.472L21.4262 26.4473L23.477 23.9208C24.6008 22.5263 25.5442 21.304 25.5688 21.1973C25.6344 20.943 25.4457 20.5739 25.1914 20.4427C25.0602 20.377 24.609 20.336 23.8871 20.336H22.7879L22.8371 19.286C22.8699 18.7118 22.8946 18.0309 22.8946 17.7684C22.8946 17.4485 22.9274 17.3009 23.0012 17.3009C23.0586 17.3009 23.3785 17.4321 23.7067 17.588ZM21.3606 20.5575C21.3196 21.1973 21.336 21.304 21.4836 21.4845C21.6395 21.6731 21.7133 21.6895 22.5172 21.7305L23.3867 21.7716L22.6403 22.6985C22.2219 23.2071 21.8774 23.6091 21.861 23.5927C21.8446 23.5845 21.8692 23.322 21.9102 23.0184C22.066 21.9602 21.902 21.788 20.7453 21.7305L19.9332 21.6895L20.6469 20.7626C21.0407 20.2622 21.3688 19.8438 21.3852 19.8438C21.3934 19.8438 21.3852 20.1638 21.3606 20.5575Z" fill="white"/>
</g>
<defs>
<clipPath id="clip0_2895_203212">
<rect width="42" height="42" fill="white" transform="translate(0.5 0.8125)"/>
</clipPath>
</defs>
</svg>
