<svg width="43" height="43" viewBox="0 0 43 43" fill="none" xmlns="http://www.w3.org/2000/svg">
<g clip-path="url(#clip0_2895_203171)">
<path d="M2.14062 1.075C1.5418 1.30469 0.901953 1.95274 0.672266 2.57617L0.5 3.03555V18.5148V33.9941L0.737891 34.4863C1.025 35.1016 1.47617 35.5527 2.05859 35.8316C2.49336 36.0367 2.58359 36.0449 4.12578 36.0695L5.7418 36.1023L5.95508 35.8891C6.20117 35.643 6.22578 35.282 6.0043 35.0113C5.84844 34.8227 5.80742 34.8145 4.29805 34.7734C2.81328 34.7324 2.73125 34.7242 2.44414 34.5273C1.87812 34.1418 1.77969 33.8383 1.74687 32.3699L1.71406 31.082H12.9195H24.125V31.566V32.05L23.5918 32.0828C23.1734 32.1074 23.0176 32.1566 22.8453 32.3125C22.468 32.6734 22.4023 32.8949 22.4023 33.8711V34.7734H15.7168H9.02305L8.82617 34.9785C8.53906 35.2574 8.54727 35.684 8.83437 35.9137C9.04766 36.0777 9.14609 36.0859 12.0746 36.0859H15.1016V37.1441V38.2105L13.8957 38.2352C12.8129 38.2598 12.6406 38.2844 12.3125 38.4484C11.4266 38.9078 11.082 39.5395 11.0164 40.7699C10.9672 41.8691 11.0328 42.2629 11.3363 42.5664L11.5906 42.8125H21.4508C31.1387 42.8125 31.3273 42.8125 31.5242 42.6484C31.877 42.3777 31.9344 42.0988 31.9016 40.9094C31.8687 39.6789 31.7703 39.4 31.2043 38.8504C30.6957 38.35 30.2117 38.2188 28.9238 38.2188H27.8164V37.8496V37.4805H33.6898C39.4402 37.4805 39.5715 37.4805 39.834 37.3164C40.1457 37.1195 40.3672 36.7094 40.3672 36.3156C40.3672 36.0531 40.4 36.0203 40.8102 35.848C41.45 35.5855 41.8766 35.1836 42.1883 34.5438L42.459 33.9941L42.4836 18.5148L42.5 3.03555L42.3277 2.55977C42.0816 1.91992 41.4746 1.31289 40.8348 1.075L40.359 0.894531L21.4754 0.902737H2.5918L2.14062 1.075ZM40.3262 2.30547C40.6543 2.48594 40.9906 2.84688 41.0973 3.13399C41.1547 3.28164 41.1875 4.24141 41.1875 5.66055V7.94922H21.5H1.8125V5.65234C1.8125 3.90508 1.83711 3.28984 1.92734 3.08477C2.05039 2.77305 2.55078 2.30547 2.82148 2.25625C2.91992 2.23164 3.07578 2.19883 3.16602 2.17422C3.25625 2.15781 11.5988 2.14961 21.7051 2.15781C38.6609 2.16602 40.0965 2.17422 40.3262 2.30547ZM41.1875 19.5156V29.7695H40.7773H40.3672V27.973C40.3672 26.2504 40.359 26.1766 40.1785 25.9059C39.9488 25.5531 39.5223 25.3398 39.0793 25.3398H38.7266V24.7246V24.1094H39.0793C39.5223 24.1094 39.9488 23.8961 40.1785 23.5434C40.359 23.2727 40.3672 23.1988 40.3672 21.3859C40.3672 19.3105 40.3426 19.1957 39.8586 18.843C39.5961 18.6625 39.5223 18.6543 37.6684 18.6297C36.6102 18.6133 35.6586 18.6215 35.552 18.6543C35.0516 18.7773 34.8711 19.368 35.2156 19.7371C35.3879 19.9258 35.4125 19.9258 37.2254 19.9258H39.0547V21.3613V22.7969H31.3848H23.7148V21.3613V19.9258H27.9148C32.1148 19.9258 32.1148 19.9258 32.3035 19.7453C32.5414 19.5238 32.5496 19.1137 32.3363 18.8512L32.1805 18.6543L27.8 18.6297L23.4277 18.6133L23.0668 18.7938C22.4434 19.1137 22.4023 19.2695 22.4023 21.3613C22.4023 22.9199 22.4187 23.207 22.55 23.4449C22.7633 23.8715 23.0668 24.052 23.6328 24.093L24.125 24.1258V24.7246V25.3234L23.6328 25.3563C23.0668 25.3973 22.7633 25.5777 22.55 26.0043C22.4187 26.2422 22.4023 26.5293 22.4023 28.0223V29.7695H12.0664H1.73047V19.5156V9.26172H21.459H41.1875V19.5156ZM37.4141 24.7246V25.3398H31.3848H25.3555V24.7246V24.1094H31.3848H37.4141V24.7246ZM39.0547 28.0879V29.5234H31.3848H23.7148V28.0879V26.6523H31.3848H39.0547V28.0879ZM37.4141 31.4512V32.0664H31.3848H25.3555V31.4512V30.8359H31.3848H37.4141V31.4512ZM41.1875 32.2469C41.1875 33.6332 41.1055 33.9777 40.7035 34.3551L40.4082 34.634L40.3672 33.6988C40.3262 32.6898 40.2523 32.5094 39.8176 32.2223C39.6699 32.1238 39.4402 32.0664 39.1613 32.0664H38.7266V31.5742V31.082H39.957H41.1875V32.2469ZM39.0547 34.7734V36.168H31.3848H23.7148V34.7734V33.3789H31.3848H39.0547V34.7734ZM22.4023 36.3484C22.4023 36.693 22.6566 37.1113 22.993 37.3164C23.2391 37.4641 23.4113 37.4805 24.8879 37.4805H26.5039V37.8496V38.2188H21.459H16.4141V37.1523V36.0859H19.4082H22.4023V36.3484ZM30.1133 39.6625C30.4906 39.8922 30.6055 40.1793 30.6055 40.9176V41.582H21.459H12.3125V40.9996C12.3125 40.3105 12.4766 39.9086 12.8375 39.6871C13.0836 39.5395 13.4199 39.5313 21.4836 39.5313C29.1125 39.5313 29.9 39.5477 30.1133 39.6625Z" fill="white"/>
<path d="M4.54413 3.2817C4.08475 3.38834 3.50233 3.91334 3.32186 4.38092C3.01834 5.18483 3.32186 6.13639 4.01913 6.60397C4.45389 6.89108 5.19217 6.9567 5.70897 6.76803C6.45545 6.48092 6.98045 5.57037 6.8492 4.79928C6.66873 3.67545 5.66795 3.0192 4.54413 3.2817ZM5.38905 4.70084C5.68436 4.99616 5.46288 5.57037 5.04452 5.57037C4.79022 5.57037 4.51952 5.29967 4.51952 5.04537C4.51952 4.62702 5.09373 4.40553 5.38905 4.70084Z" fill="white"/>
<path d="M9.13788 3.2817C8.6785 3.38834 8.09608 3.91334 7.91561 4.38092C7.61209 5.18483 7.91561 6.13639 8.61288 6.60397C9.04764 6.89108 9.78592 6.9567 10.3027 6.76803C10.8113 6.57116 11.2871 6.00514 11.4019 5.47194C11.7055 4.08561 10.5406 2.95358 9.13788 3.2817ZM9.9828 4.70084C10.2781 4.99616 10.0566 5.57037 9.63827 5.57037C9.38397 5.57037 9.11327 5.29967 9.11327 5.04537C9.11327 4.62702 9.68748 4.40553 9.9828 4.70084Z" fill="white"/>
<path d="M13.7316 3.2817C13.2804 3.38834 12.6898 3.91334 12.5175 4.38092C12.2058 5.19303 12.5011 6.12819 13.2066 6.60397C13.6414 6.89108 14.3796 6.9567 14.8964 6.76803C15.405 6.57116 15.8808 6.00514 15.9957 5.47194C16.2992 4.08561 15.1343 2.95358 13.7316 3.2817ZM14.5765 4.70084C14.7734 4.88952 14.7816 5.12741 14.6011 5.34889C14.3961 5.61139 14.1007 5.636 13.8711 5.40631C13.6414 5.17662 13.666 4.88131 13.9285 4.67623C14.15 4.49577 14.3878 4.50397 14.5765 4.70084Z" fill="white"/>
<path d="M5.58589 11.2879C5.52026 11.3125 4.95425 11.8375 4.33901 12.4445C2.83784 13.9293 2.83784 13.7734 4.33901 15.2664C5.3644 16.2918 5.49565 16.3984 5.75815 16.3984C6.1355 16.3984 6.4062 16.1195 6.4062 15.7422C6.4062 15.5125 6.29136 15.3566 5.6105 14.6676L4.823 13.8555L5.6105 13.0434C6.30776 12.3297 6.4062 12.1902 6.4062 11.9441C6.4062 11.4848 5.97964 11.1402 5.58589 11.2879Z" fill="white"/>
<path d="M8.66211 11.3042C8.56367 11.3452 8.44883 11.4272 8.39961 11.4847C8.25195 11.6651 6.73438 15.578 6.73438 15.7831C6.73438 15.8815 6.8082 16.062 6.90664 16.1851C7.11172 16.4394 7.53008 16.4722 7.79258 16.2507C7.99766 16.0784 9.52344 12.2394 9.52344 11.8948C9.52344 11.4601 9.06406 11.1401 8.66211 11.3042Z" fill="white"/>
<path d="M10.1386 11.3043C9.83513 11.4273 9.73669 11.6406 9.7613 12.0836C9.7613 12.1656 10.1304 12.6004 10.5652 13.0516L11.3609 13.8555L10.5734 14.6594C9.83513 15.4059 9.73669 15.5535 9.7613 15.9227C9.77771 16.177 10.073 16.3984 10.3929 16.3984C10.6636 16.3984 10.7867 16.3 11.7383 15.3648C12.8047 14.323 13.0261 14.0113 12.9359 13.675C12.8703 13.4125 10.7621 11.3289 10.5078 11.2797C10.3929 11.2551 10.2289 11.2715 10.1386 11.3043Z" fill="white"/>
<path d="M14.3961 13.15C13.9942 13.3305 13.9121 13.757 14.2075 14.1344L14.3715 14.3477H15.7168C16.8981 14.3477 17.0703 14.3313 17.2426 14.1918C17.4969 13.9867 17.5051 13.5109 17.2508 13.2566C17.0786 13.0926 16.9801 13.0762 15.8563 13.0598C14.9703 13.0434 14.5848 13.068 14.3961 13.15Z" fill="white"/>
<path d="M18.8996 13.1172C18.5141 13.273 18.4238 13.8719 18.7355 14.1672L18.9242 14.3477H25.6672C32.3035 14.3477 32.4102 14.3477 32.5742 14.1836C32.8203 13.9375 32.8203 13.5027 32.566 13.2402C32.4102 13.0762 32.2871 13.0762 25.741 13.0598C22.0004 13.0516 18.998 13.0762 18.8996 13.1172Z" fill="white"/>
<path d="M14.4044 15.8324C14.0024 16.0621 13.9204 16.4723 14.2075 16.8414L14.3715 17.0547H16.8653C19.1704 17.0547 19.359 17.0465 19.5395 16.8988C19.7938 16.6938 19.802 16.218 19.5477 15.9637C19.3672 15.7832 19.3262 15.7832 16.9637 15.7668C15.3149 15.7504 14.5192 15.775 14.4044 15.8324Z" fill="white"/>
<path d="M20.8684 15.8242C20.4828 15.9801 20.3926 16.5789 20.7043 16.8742C20.8848 17.0383 20.975 17.0547 22.025 17.0547C22.6402 17.0547 23.2227 17.0219 23.3047 16.9727C23.6984 16.7594 23.6574 16.0703 23.2227 15.8488C22.9848 15.7258 21.1555 15.7094 20.8684 15.8242Z" fill="white"/>
<path d="M24.6418 15.8242C24.2562 15.9801 24.166 16.5789 24.4777 16.8742C24.6664 17.0547 24.7074 17.0547 27.5211 17.0547C29.2191 17.0547 30.4332 17.0219 30.5234 16.9727C30.9172 16.7594 30.8762 16.0703 30.4414 15.8488C30.1953 15.7258 24.9453 15.7012 24.6418 15.8242Z" fill="white"/>
<path d="M3.90432 18.7937C3.48596 19.0398 3.41213 19.4828 3.74026 19.8027L3.93713 20.0078H6.26682C8.48987 20.0078 8.59651 19.9996 8.76877 19.8437C9.01487 19.6141 9.01487 19.1055 8.77698 18.8922C8.62112 18.7445 8.43244 18.7363 6.33244 18.7199C4.71643 18.7035 4.01916 18.7199 3.90432 18.7937Z" fill="white"/>
<path d="M10.3028 18.7937C9.8844 19.0316 9.81057 19.4828 10.1387 19.8027L10.3356 20.0078H14.191C16.3074 20.0078 18.1039 19.9832 18.1778 19.9586C18.2434 19.9258 18.3664 19.7945 18.4321 19.6633C18.6125 19.3187 18.4649 18.9004 18.1203 18.7855C17.7594 18.6543 10.5242 18.6625 10.3028 18.7937Z" fill="white"/>
<path d="M24.7977 20.9347C24.4695 21.2874 24.5926 21.8124 25.0356 21.9682C25.3719 22.0831 28.1199 22.0913 28.4481 21.9765C28.8746 21.8206 29.0059 21.3284 28.7106 20.9593L28.5465 20.746H26.7582C25.0027 20.746 24.9699 20.746 24.7977 20.9347Z" fill="white"/>
<path d="M29.9246 20.8446C29.5473 21.1317 29.6047 21.7387 30.0313 21.952C30.2773 22.0751 31.1469 22.0915 31.4832 21.9766C31.9098 21.8208 32.041 21.3286 31.7457 20.9594C31.5898 20.7544 31.5406 20.7462 30.8188 20.7462C30.343 20.7462 30.0148 20.7872 29.9246 20.8446Z" fill="white"/>
<path d="M32.9023 20.9102C32.6562 21.1563 32.6562 21.591 32.9105 21.8535C33.0664 22.0094 33.1812 22.0176 35.4535 22.0176H37.8406L37.9964 21.8207C38.2015 21.5664 38.2015 21.1234 37.9882 20.9102C37.8324 20.7543 37.7175 20.7461 35.4453 20.7461C33.173 20.7461 33.0582 20.7543 32.9023 20.9102Z" fill="white"/>
<path d="M3.74017 21.5253C3.48588 21.7714 3.47767 22.1241 3.69916 22.3702C3.93705 22.6163 4.12572 22.6491 5.24135 22.6163C6.06986 22.5999 6.25033 22.5671 6.39799 22.4358C6.63588 22.2226 6.63588 21.714 6.38978 21.4843C6.22572 21.3366 6.10267 21.3202 5.07728 21.3202C3.97807 21.3202 3.92885 21.3284 3.74017 21.5253Z" fill="white"/>
<path d="M7.65309 21.509C7.43161 21.7469 7.42341 22.1406 7.62848 22.3949L7.78434 22.5918H10.7539H13.7234L13.8793 22.3949C14.0925 22.1324 14.0843 21.7223 13.8465 21.5008C13.6578 21.3203 13.6168 21.3203 10.7457 21.3203H7.82536L7.65309 21.509Z" fill="white"/>
<path d="M15.2411 21.4187C15.0196 21.5991 14.9211 21.9601 15.036 22.2062C15.2082 22.5507 15.4707 22.6409 16.2582 22.6163C17.1114 22.5835 17.3165 22.4605 17.3165 21.9683C17.3165 21.4351 17.1114 21.3202 16.168 21.3202C15.6676 21.3202 15.3313 21.3612 15.2411 21.4187Z" fill="white"/>
<path d="M18.2434 21.4433C17.8824 21.6976 17.9399 22.3538 18.35 22.5425C18.6207 22.6655 20.6879 22.6655 20.9586 22.5425C21.2539 22.403 21.3852 21.9765 21.2211 21.6647C21.1555 21.5335 21.0324 21.4022 20.9668 21.3694C20.893 21.3448 20.286 21.3202 19.6215 21.3202C18.6945 21.3202 18.3828 21.3448 18.2434 21.4433Z" fill="white"/>
<path d="M3.90432 23.9617C3.48596 24.1996 3.41213 24.6508 3.74026 24.9707L3.93713 25.1758H5.75002C6.75901 25.1758 7.62854 25.143 7.71057 25.0937C7.7926 25.0527 7.90744 24.9051 7.96487 24.7656C8.09612 24.4539 7.96487 24.093 7.66955 23.9535C7.39065 23.8305 4.1258 23.8305 3.90432 23.9617Z" fill="white"/>
<path d="M8.97383 23.9453C8.58828 24.1012 8.49804 24.7 8.80976 24.9953C8.99843 25.1758 9.04765 25.1758 11.3363 25.1758C13.6742 25.1758 13.6824 25.1758 13.8547 24.9871C14.0762 24.7492 14.0844 24.3555 13.8793 24.1012L13.7234 23.9043L11.4348 23.8879C10.1797 23.8797 9.07226 23.9043 8.97383 23.9453Z" fill="white"/>
<path d="M15.2082 23.9453C14.8227 24.1012 14.7324 24.7 15.0441 24.9953C15.2328 25.1758 15.2738 25.1758 18.1531 25.1758C19.7609 25.1758 21.1391 25.1512 21.2129 25.1266C21.2785 25.0938 21.4016 24.9625 21.4672 24.8313C21.6312 24.5195 21.5 24.093 21.2047 23.9535C20.9586 23.8469 15.4871 23.8305 15.2082 23.9453Z" fill="white"/>
<path d="M24.9781 27.5055C24.568 27.6859 24.4777 28.2191 24.8059 28.5227C24.9863 28.6949 25.0601 28.7031 26.7664 28.7031H28.5465L28.7105 28.4898C29.0059 28.1207 28.8746 27.6285 28.448 27.4727C28.0707 27.3496 25.2898 27.3742 24.9781 27.5055Z" fill="white"/>
<path d="M30.0313 27.4973C29.7278 27.6531 29.6047 27.9648 29.7114 28.2848C29.8344 28.6457 29.9985 28.7031 30.8434 28.7031C31.5407 28.7031 31.5899 28.6949 31.7457 28.4898C32.0492 28.1043 31.9262 27.6449 31.475 27.4727C31.1633 27.3578 30.2774 27.3742 30.0313 27.4973Z" fill="white"/>
<path d="M33.1074 27.4645C32.6891 27.6449 32.5742 28.2109 32.9024 28.5391C33.0582 28.6949 33.1731 28.7031 35.4453 28.7031C37.7176 28.7031 37.8324 28.6949 37.9883 28.5391C38.2016 28.3258 38.2016 27.8828 37.9965 27.6285L37.8406 27.4316L35.552 27.4152C34.2969 27.407 33.1977 27.4316 33.1074 27.4645Z" fill="white"/>
<path d="M24.8223 34.3223C24.691 34.4453 24.6172 34.6176 24.6172 34.7734C24.6172 34.9293 24.691 35.1016 24.8223 35.2246C25.0191 35.4297 25.0273 35.4297 26.7008 35.4297C27.6195 35.4297 28.4398 35.4051 28.5137 35.3805C28.7188 35.2984 28.8992 34.8719 28.8418 34.6012C28.7434 34.15 28.6039 34.1172 26.7254 34.1172C25.0273 34.1172 25.0191 34.1172 24.8223 34.3223Z" fill="white"/>
<path d="M29.9328 34.232C29.5636 34.5109 29.6046 35.159 29.9984 35.3395C30.1132 35.3887 30.4988 35.4297 30.8597 35.4297C31.4503 35.4297 31.5324 35.4051 31.7128 35.2246C31.8441 35.1016 31.9179 34.9293 31.9179 34.7734C31.9179 34.6176 31.8441 34.4453 31.7128 34.3223C31.5324 34.1336 31.4503 34.1172 30.7941 34.1172C30.3347 34.1254 30.023 34.1582 29.9328 34.232Z" fill="white"/>
<path d="M32.9515 34.2895C32.648 34.5273 32.648 35.0195 32.9515 35.2574C33.1648 35.4215 33.2714 35.4297 35.4453 35.4297C37.6191 35.4297 37.7257 35.4215 37.939 35.2574C38.1031 35.1262 38.1523 35.0195 38.1523 34.7734C38.1523 34.5273 38.1031 34.4207 37.939 34.2895C37.7257 34.1254 37.6191 34.1172 35.4453 34.1172C33.2714 34.1172 33.1648 34.1254 32.9515 34.2895Z" fill="white"/>
</g>
<defs>
<clipPath id="clip0_2895_203171">
<rect width="42" height="42" fill="white" transform="translate(0.5 0.8125)"/>
</clipPath>
</defs>
</svg>
