<svg width="43" height="43" viewBox="0 0 43 43" fill="none" xmlns="http://www.w3.org/2000/svg">
<g clip-path="url(#clip0_2895_203225)">
<path d="M2.83789 0.968597C1.95195 1.28852 1.20547 1.96117 0.778906 2.8225L0.541016 3.31469V21.8127V40.3108L0.778906 40.803C1.11523 41.4838 1.77969 42.1565 2.45234 42.4928L3.00195 42.7717L21.9102 42.7963C34.8383 42.8127 40.9086 42.7963 41.1137 42.7307C41.5074 42.6241 42.1637 42.0334 42.3441 41.6233C42.4918 41.3116 42.5 40.5815 42.5 23.5682V5.83305L42.2703 5.39828C42.0242 4.9143 41.491 4.48774 40.9578 4.34008C40.7609 4.29086 38.0211 4.25805 33.2141 4.25805H25.7738L25.7246 3.94633C25.5277 2.63383 24.8387 1.66586 23.7148 1.11625L23.1816 0.853752L13.2148 0.837349C3.75664 0.820942 3.22344 0.820942 2.83789 0.968597ZM5.36445 2.87992C5.43828 3.87251 5.76641 4.42211 6.52109 4.81586L6.93945 5.03735H13.0918H19.2441L19.6297 4.84867C20.3926 4.47133 20.8438 3.70024 20.8438 2.76508V2.2893H21.7707C22.4844 2.2893 22.7633 2.33031 23.0176 2.44516C23.4523 2.64204 23.8625 3.06039 24.0758 3.51977L24.248 3.88891V21.8127V39.7366L24.0758 40.1057C23.8625 40.5651 23.4523 40.9834 23.0176 41.1803C22.7059 41.328 22.2137 41.3362 13.0918 41.3362C3.9125 41.3362 3.47773 41.328 3.16602 41.1803C2.98555 41.0983 2.69844 40.885 2.53437 40.7127C1.92734 40.0729 1.97656 41.7791 1.97656 21.8127C1.97656 1.84633 1.92734 3.55258 2.53437 2.91274C3.02656 2.40414 3.35469 2.2893 4.40469 2.2893H5.31523L5.36445 2.87992ZM19.3672 2.69125C19.3672 3.00297 19.318 3.15063 19.1703 3.3311L18.9734 3.56078L13.2395 3.5854C9.03945 3.6018 7.45625 3.57719 7.28398 3.51157C6.99687 3.38852 6.81641 3.05219 6.81641 2.61742V2.2893H13.0918H19.3672V2.69125ZM40.6871 5.85766C40.8184 5.92329 40.9414 6.03813 40.9742 6.10375C40.9988 6.17758 41.0234 7.04711 41.0234 8.03969V9.83617H33.3945H25.7656V7.78539V5.73461H33.1074C39.3992 5.73461 40.4902 5.75102 40.6871 5.85766ZM41.0234 26.1358V40.9588L40.843 41.1475L40.6707 41.3362H32.8941H25.1176L25.2816 41.0491C25.3801 40.885 25.5031 40.6061 25.5605 40.4092L25.659 40.0647L30.0312 40.0401C34.059 40.0237 34.4199 40.0073 34.5676 39.876C34.8137 39.6545 34.8875 39.3838 34.7809 39.0639C34.6086 38.5389 34.6824 38.5471 29.9902 38.5471H25.7656V30.5491V22.551H32.1887C38.2672 22.551 38.6199 22.5428 38.9398 22.3952C39.1285 22.3131 39.3664 22.1163 39.473 21.9686L39.6699 21.6897L39.6945 17.662L39.7191 13.6424L39.5305 13.3635C39.4238 13.2077 39.2105 12.9944 39.0629 12.8959L38.784 12.7073H32.2789H25.7656V12.01V11.3127H33.3945H41.0234V26.1358ZM30.466 17.26C27.923 18.9498 25.8312 20.3362 25.8066 20.3362C25.782 20.3362 25.7656 18.9498 25.7656 17.26V14.1838H30.4168H35.0762L30.466 17.26ZM38.2344 17.6291V21.0745H32.8449H27.4473L32.6152 17.6291C36.2902 15.1764 37.8488 14.1838 38.0129 14.1838H38.2344V17.6291Z" fill="white"/>
<path d="M4.23242 7.14531C3.93711 7.25195 3.55977 7.58008 3.40391 7.88359C3.31367 8.06406 3.28906 8.81055 3.28906 12.018C3.28906 15.8078 3.29727 15.9309 3.46133 16.2262C3.55156 16.3902 3.75664 16.6199 3.9207 16.7266L4.22422 16.9316H13.0918H21.9594L22.2957 16.7102C22.9437 16.2836 22.9355 16.3656 22.9355 12.0098C22.9355 7.65391 22.9437 7.73594 22.2957 7.30938L21.9594 7.08789L13.223 7.07148C7.25937 7.06328 4.39648 7.08789 4.23242 7.14531ZM18.2926 8.55625C18.2762 8.57266 15.2246 10.1066 11.5168 11.9605L4.76562 15.332V11.9277V8.52344H11.5496C15.2738 8.52344 18.309 8.53984 18.2926 8.55625ZM21.5 12.0918V15.4961L14.675 15.4879H7.8418L14.6094 12.0918C18.3336 10.2215 21.4016 8.6957 21.4426 8.6957C21.4754 8.6875 21.5 10.2215 21.5 12.0918Z" fill="white"/>
<path d="M4.88864 18.4902C4.65895 18.7117 4.60973 19.2121 4.7902 19.4418C5.01169 19.7371 5.22497 19.7617 7.1445 19.7617C9.47419 19.7617 9.60544 19.7207 9.60544 18.9742C9.60544 18.7773 9.53981 18.6215 9.40036 18.4902L9.20348 18.2852H7.1445H5.08551L4.88864 18.4902Z" fill="white"/>
<path d="M11.2051 18.4902C10.9508 18.7363 10.9262 19.2449 11.1559 19.5238L11.3117 19.7207H16.25H21.1883L21.3441 19.5238C21.5738 19.2449 21.5492 18.7363 21.2949 18.4902L21.0981 18.2852H16.25H11.402L11.2051 18.4902Z" fill="white"/>
<path d="M4.88864 23.4121C4.60153 23.691 4.60974 24.175 4.89685 24.4457L5.11013 24.6426H9.62185H14.1336L14.3304 24.4129C14.5929 24.1012 14.5929 23.6746 14.3222 23.4121L14.1254 23.207H9.60544H5.08552L4.88864 23.4121Z" fill="white"/>
<path d="M16.086 23.3713C15.8481 23.6092 15.7989 23.9209 15.9465 24.2409C16.1516 24.6592 16.3977 24.7002 18.8915 24.6674C21.0735 24.6428 21.0735 24.6428 21.2868 24.4459C21.5739 24.1752 21.5821 23.642 21.3114 23.3877C21.1227 23.2073 21.0735 23.2073 18.6864 23.2073C16.3731 23.2073 16.2418 23.2155 16.086 23.3713Z" fill="white"/>
<path d="M4.88863 26.2012C4.57691 26.5047 4.60152 26.9805 4.93785 27.2594L5.19215 27.4727H13.0589C19.8101 27.4727 20.9668 27.4563 21.1636 27.3496C21.4343 27.2102 21.5 27.0789 21.5 26.6523C21.5 26.4062 21.4507 26.2996 21.2867 26.1684C21.0652 25.9961 21.0406 25.9961 13.0753 25.9961H5.0855L4.88863 26.2012Z" fill="white"/>
<path d="M4.88864 28.9902C4.65895 29.2117 4.60973 29.7121 4.7902 29.9418C5.02809 30.2535 5.13473 30.2617 9.63825 30.2617H14.0187L14.273 30.0484C14.6093 29.7695 14.634 29.2938 14.3222 28.9902L14.1254 28.7852H9.60544H5.08551L4.88864 28.9902Z" fill="white"/>
<path d="M16.0695 29.0313C15.8562 29.2528 15.8234 29.3267 15.8644 29.5892C15.8972 29.7696 16.0039 29.9665 16.1351 30.0813L16.3484 30.27L18.7683 30.2454L21.1883 30.2208L21.3441 30.0239C21.5738 29.745 21.5492 29.2364 21.2949 28.9903L21.098 28.7853H18.7109H16.3156L16.0695 29.0313Z" fill="white"/>
<path d="M4.88867 31.7793C4.73281 31.927 4.68359 32.0664 4.68359 32.3125C4.68359 32.5586 4.73281 32.698 4.88867 32.8457L5.08555 33.0508H13.0918H21.098L21.2949 32.8457C21.582 32.5668 21.582 32.0582 21.2949 31.7793L21.098 31.5742H13.0918H5.08555L4.88867 31.7793Z" fill="white"/>
<path d="M9.31021 38.6289C8.85084 38.8094 8.71959 39.4738 9.07232 39.8184L9.2692 40.0234H13.0919H16.9145L17.1114 39.8184C17.3985 39.5395 17.3903 39.0555 17.1032 38.7848L16.8899 38.5879L13.1903 38.5715C11.1477 38.5633 9.40045 38.5879 9.31021 38.6289Z" fill="white"/>
<path d="M33.0911 7.12928C32.6317 7.31795 32.5251 8.06444 32.9106 8.37616C33.1731 8.59764 33.6817 8.56483 33.9278 8.31873C34.4774 7.77733 33.8129 6.82576 33.0911 7.12928Z" fill="white"/>
<path d="M35.9375 7.10475C35.3961 7.31803 35.2976 8.06451 35.7652 8.41725C35.839 8.47467 36.0359 8.52389 36.2082 8.52389C37.1023 8.53209 37.1925 7.236 36.3066 7.09654C36.1671 7.07193 36.0031 7.07193 35.9375 7.10475Z" fill="white"/>
<path d="M38.6528 7.16174C38.218 7.40783 38.1278 7.89182 38.4477 8.26916C38.8907 8.80237 39.711 8.49885 39.711 7.80158C39.711 7.26838 39.1122 6.89924 38.6528 7.16174Z" fill="white"/>
<path d="M30.7285 23.9782C30.3839 24.1258 29.9656 24.6262 29.9082 24.9461C29.8836 25.0938 29.8672 26.9395 29.8836 29.0395L29.9082 32.8621L30.1379 33.1575C30.5972 33.7645 30.4824 33.7481 34.4199 33.7727C36.364 33.7891 38.1359 33.7727 38.3738 33.7481C38.866 33.6907 39.2597 33.4528 39.5222 33.059L39.7109 32.7801V28.8344C39.7109 24.9051 39.7109 24.8887 39.5222 24.5688C39.4074 24.3637 39.2023 24.175 38.9808 24.052L38.6199 23.8633H34.7972C31.8277 23.8715 30.9172 23.8961 30.7285 23.9782ZM37.6601 25.4547C37.5371 25.5614 31.7703 30.3602 31.4832 30.5817C31.3519 30.6883 31.3437 30.5489 31.3437 28.0141V25.3399H34.5593C37.2746 25.3399 37.7586 25.3563 37.6601 25.4547ZM38.2097 32.2879C38.1933 32.3043 36.7496 32.3043 34.9941 32.2961L31.8195 32.2715L35.0023 29.6219L38.1933 26.9805L38.2179 29.6137C38.2261 31.0657 38.2261 32.2715 38.2097 32.2879Z" fill="white"/>
<path d="M36.6758 38.6043C36.1672 38.8012 36.0113 39.4492 36.3887 39.8184C36.5855 40.0234 36.6101 40.0234 37.9473 40.0234C39.2844 40.0234 39.309 40.0234 39.5058 39.8184C39.793 39.5395 39.7848 39.0555 39.4976 38.7848C39.3008 38.5961 39.2351 38.5879 38.0457 38.5715C37.3566 38.5633 36.7414 38.5797 36.6758 38.6043Z" fill="white"/>
</g>
<defs>
<clipPath id="clip0_2895_203225">
<rect width="42" height="42" fill="white" transform="translate(0.5 0.8125)"/>
</clipPath>
</defs>
</svg>
