<svg width="91" height="44" viewBox="0 0 91 44" fill="none" xmlns="http://www.w3.org/2000/svg">
<path fill-rule="evenodd" clip-rule="evenodd" d="M87.0364 19.9322C86.5473 20.6717 86.1757 21.5827 85.1813 21.5827C83.5078 21.5827 83.4173 19.0022 81.7429 19.0022C80.0684 19.0022 80.1589 21.5827 78.4854 21.5827C76.8119 21.5827 76.7214 19.0022 75.0469 19.0022C73.3725 19.0022 73.463 21.5827 71.7895 21.5827C70.1159 21.5827 70.0255 19.0022 68.351 19.0022C66.6766 19.0022 66.7671 21.5827 65.0936 21.5827C64.5676 21.5827 64.198 21.3278 63.8865 20.9783C62.6889 18.8943 62 16.4521 62 13.8411C62 6.19687 67.9051 0 75.1894 0C82.4738 0 88.3789 6.19687 88.3789 13.8411C88.3789 16.0268 87.8961 18.0942 87.0364 19.9322Z" fill="#FB70A9"/>
<path d="M69.9222 18.5657V24.2987C69.9222 25.3275 69.0882 26.1615 68.0595 26.1615C67.0307 26.1615 66.1967 25.3275 66.1967 24.2987V17.3778C66.5443 16.7396 66.9415 16.187 67.6575 16.187C68.8232 16.187 69.2305 17.6513 69.9222 18.5657ZM76.9595 18.8644V27.9302C76.9595 29.0733 76.0328 30 74.8897 30C73.7466 30 72.8199 29.0733 72.8199 27.9302V17.6695C73.2097 16.918 73.6114 16.187 74.435 16.187C75.7388 16.187 76.0938 18.0191 76.9595 18.8644ZM83.5827 18.698V25.2796C83.5827 26.3084 82.7487 27.1424 81.72 27.1424C80.6912 27.1424 79.8572 26.3084 79.8572 25.2796V17.1901C80.1815 16.635 80.5677 16.187 81.2124 16.187C82.4361 16.187 82.824 17.8008 83.5827 18.698Z" fill="#4E56A6"/>
<path d="M69.9222 20.3229C69.5918 19.9183 69.2007 19.618 68.635 19.618C67.2917 19.618 67.0451 21.311 66.1967 22.0742V14.7719C66.1967 13.7431 67.0307 12.9091 68.0595 12.9091C69.0882 12.9091 69.9222 13.7431 69.9222 14.7719V20.3229ZM76.9595 20.4535C76.6071 19.9846 76.1951 19.618 75.57 19.618C74.0755 19.618 73.9385 21.7135 72.8199 22.2929V19.0634C72.8199 17.9203 73.7466 16.9936 74.8897 16.9936C76.0328 16.9936 76.9595 17.9203 76.9595 19.0634V20.4535ZM83.5827 20.0911C83.296 19.8088 82.956 19.618 82.5051 19.618C81.0573 19.618 80.8835 21.5844 79.8572 22.2341V15.6795C79.8572 14.6507 80.6912 13.8167 81.72 13.8167C82.7487 13.8167 83.5827 14.6507 83.5827 15.6795V20.0911Z" fill="black" fill-opacity="0.298514"/>
<path fill-rule="evenodd" clip-rule="evenodd" d="M87.0364 19.9322C86.5473 20.6717 86.1757 21.5827 85.1813 21.5827C83.5078 21.5827 83.4173 19.0022 81.7429 19.0022C80.0684 19.0022 80.1589 21.5827 78.4854 21.5827C76.8119 21.5827 76.7214 19.0022 75.0469 19.0022C73.3725 19.0022 73.463 21.5827 71.7895 21.5827C70.1159 21.5827 70.0255 19.0022 68.351 19.0022C66.6766 19.0022 66.7671 21.5827 65.0936 21.5827C64.5676 21.5827 64.198 21.3278 63.8865 20.9783C62.6889 18.8943 62 16.4521 62 13.8411C62 6.19687 67.9051 0 75.1894 0C82.4738 0 88.3789 6.19687 88.3789 13.8411C88.3789 16.0268 87.8961 18.0942 87.0364 19.9322Z" fill="#FB70A9"/>
<path fill-rule="evenodd" clip-rule="evenodd" d="M84.1823 21.307C87.6386 16.1652 87.7279 10.4617 84.4502 4.19666C86.8798 6.68568 88.3789 10.1014 88.3789 13.8703C88.3789 16.0477 87.8785 18.1073 86.9874 19.9384C86.4804 20.6751 86.0953 21.5827 85.0646 21.5827C84.7118 21.5827 84.4269 21.4764 84.1823 21.307Z" fill="#E24CA6"/>
<path fill-rule="evenodd" clip-rule="evenodd" d="M74.4823 17.2939C79.069 17.2939 81.0002 14.6331 81.0002 10.8543C81.0002 7.07552 78.0821 3.59717 74.4823 3.59717C70.8826 3.59717 67.9645 7.07552 67.9645 10.8543C67.9645 14.6331 69.8957 17.2939 74.4823 17.2939Z" fill="white"/>
<path d="M72.7298 11.068C74.0797 11.068 75.174 9.86018 75.174 8.3702C75.174 6.88023 74.0797 5.67236 72.7298 5.67236C71.3799 5.67236 70.2856 6.88023 70.2856 8.3702C70.2856 9.86018 71.3799 11.068 72.7298 11.068Z" fill="#030776"/>
<path d="M72.3226 8.99288C72.9975 8.99288 73.5447 8.4354 73.5447 7.74772C73.5447 7.06004 72.9975 6.50256 72.3226 6.50256C71.6476 6.50256 71.1005 7.06004 71.1005 7.74772C71.1005 8.4354 71.6476 8.99288 72.3226 8.99288Z" fill="white"/>
<path d="M0 43.8719V35.4091H1.56395V42.5868H5.36633V43.8719H0Z" fill="black"/>
<path d="M8.51953 44C8.10922 44 7.73966 43.9284 7.41085 43.7851C7.08485 43.6391 6.8263 43.4242 6.6352 43.1405C6.44691 42.8567 6.35276 42.5069 6.35276 42.0909C6.35276 41.7328 6.42021 41.4366 6.5551 41.2025C6.69 40.9683 6.87408 40.781 7.10733 40.6405C7.34059 40.5 7.60336 40.3939 7.89563 40.3223C8.19072 40.2479 8.49564 40.1942 8.8104 40.1612C9.18979 40.1226 9.49752 40.0882 9.73359 40.0579C9.96966 40.0248 10.1411 39.9752 10.2479 39.9091C10.3575 39.8402 10.4123 39.7342 10.4123 39.5909V39.5661C10.4123 39.2548 10.3181 39.0138 10.1298 38.843C9.94155 38.6722 9.67036 38.5868 9.31626 38.5868C8.94248 38.5868 8.64599 38.6667 8.42678 38.8264C8.21039 38.9862 8.06425 39.1749 7.98837 39.3926L6.56353 39.1942C6.67595 38.8085 6.86143 38.4862 7.11998 38.2273C7.37853 37.9656 7.69469 37.77 8.06847 37.6405C8.44224 37.5083 8.85536 37.4421 9.30782 37.4421C9.61977 37.4421 9.93031 37.478 10.2394 37.5496C10.5486 37.6212 10.831 37.7397 11.0868 37.905C11.3425 38.0675 11.5477 38.2893 11.7022 38.5702C11.8596 38.8512 11.9383 39.2025 11.9383 39.624V43.8719H10.4713V43H10.4207C10.328 43.1763 10.1973 43.3416 10.0287 43.4959C9.86287 43.6474 9.6535 43.77 9.40057 43.8636C9.15045 43.9545 8.85677 44 8.51953 44ZM8.91578 42.9008C9.22211 42.9008 9.48769 42.8416 9.71251 42.7231C9.93734 42.6019 10.1102 42.4421 10.231 42.2438C10.3547 42.0455 10.4165 41.8292 10.4165 41.595V40.8471C10.3687 40.8857 10.2872 40.9215 10.172 40.9545C10.0596 40.9876 9.93312 41.0165 9.79261 41.0413C9.65209 41.0661 9.51298 41.0882 9.37527 41.1074C9.23757 41.1267 9.11813 41.1433 9.01695 41.157C8.78932 41.1873 8.58557 41.2369 8.40571 41.3058C8.22585 41.3747 8.08392 41.4711 7.97994 41.595C7.87596 41.7163 7.82397 41.8733 7.82397 42.0661C7.82397 42.3416 7.92655 42.5496 8.1317 42.6901C8.33685 42.8306 8.59822 42.9008 8.91578 42.9008Z" fill="black"/>
<path d="M13.4727 43.8719V37.5248H14.9524V38.5826H15.0198C15.1379 38.2163 15.3402 37.9339 15.6269 37.7355C15.9163 37.5344 16.2465 37.4339 16.6175 37.4339C16.7018 37.4339 16.796 37.438 16.8999 37.4463C17.0067 37.4518 17.0953 37.4614 17.1655 37.4752V38.8512C17.1009 38.8292 16.9983 38.8099 16.8578 38.7934C16.7201 38.7741 16.5866 38.7645 16.4573 38.7645C16.1791 38.7645 15.929 38.8237 15.707 38.9421C15.4877 39.0579 15.3149 39.219 15.1884 39.4256C15.062 39.6322 14.9987 39.8705 14.9987 40.1405V43.8719H13.4727Z" fill="black"/>
<path d="M19.9267 44C19.5164 44 19.1468 43.9284 18.818 43.7851C18.492 43.6391 18.2334 43.4242 18.0423 43.1405C17.854 42.8567 17.7599 42.5069 17.7599 42.0909C17.7599 41.7328 17.8274 41.4366 17.9622 41.2025C18.0971 40.9683 18.2812 40.781 18.5145 40.6405C18.7477 40.5 19.0105 40.3939 19.3028 40.3223C19.5979 40.2479 19.9028 40.1942 20.2175 40.1612C20.5969 40.1226 20.9047 40.0882 21.1407 40.0579C21.3768 40.0248 21.5482 39.9752 21.655 39.9091C21.7646 39.8402 21.8194 39.7342 21.8194 39.5909V39.5661C21.8194 39.2548 21.7253 39.0138 21.537 38.843C21.3487 38.6722 21.0775 38.5868 20.7234 38.5868C20.3496 38.5868 20.0531 38.6667 19.8339 38.8264C19.6175 38.9862 19.4714 39.1749 19.3955 39.3926L17.9707 39.1942C18.0831 38.8085 18.2686 38.4862 18.5271 38.2273C18.7857 37.9656 19.1018 37.77 19.4756 37.6405C19.8494 37.5083 20.2625 37.4421 20.715 37.4421C21.0269 37.4421 21.3375 37.478 21.6466 37.5496C21.9557 37.6212 22.2382 37.7397 22.4939 37.905C22.7496 38.0675 22.9548 38.2893 23.1094 38.5702C23.2668 38.8512 23.3454 39.2025 23.3454 39.624V43.8719H21.8784V43H21.8279C21.7351 43.1763 21.6044 43.3416 21.4358 43.4959C21.27 43.6474 21.0606 43.77 20.8077 43.8636C20.5576 43.9545 20.2639 44 19.9267 44ZM20.3229 42.9008C20.6293 42.9008 20.8948 42.8416 21.1197 42.7231C21.3445 42.6019 21.5173 42.4421 21.6382 42.2438C21.7618 42.0455 21.8236 41.8292 21.8236 41.595V40.8471C21.7759 40.8857 21.6944 40.9215 21.5791 40.9545C21.4667 40.9876 21.3403 41.0165 21.1998 41.0413C21.0592 41.0661 20.9201 41.0882 20.7824 41.1074C20.6447 41.1267 20.5253 41.1433 20.4241 41.157C20.1965 41.1873 19.9927 41.2369 19.8129 41.3058C19.633 41.3747 19.4911 41.4711 19.3871 41.595C19.2831 41.7163 19.2311 41.8733 19.2311 42.0661C19.2311 42.3416 19.3337 42.5496 19.5388 42.6901C19.744 42.8306 20.0054 42.9008 20.3229 42.9008Z" fill="black"/>
<path d="M30.4317 37.5248L28.1258 43.8719H26.4396L24.1337 37.5248H25.7609L27.249 42.2397H27.3164L28.8087 37.5248H30.4317Z" fill="black"/>
<path d="M34.134 43.9959C33.4848 43.9959 32.9241 43.8636 32.452 43.5992C31.9826 43.332 31.6215 42.9545 31.3686 42.4669C31.1157 41.9766 30.9892 41.3994 30.9892 40.7355C30.9892 40.0826 31.1157 39.5096 31.3686 39.0165C31.6243 38.5207 31.9812 38.135 32.4393 37.8595C32.8974 37.5813 33.4356 37.4421 34.0539 37.4421C34.4529 37.4421 34.8295 37.5055 35.1836 37.6322C35.5405 37.7562 35.8553 37.949 36.1279 38.2107C36.4033 38.4725 36.6197 38.8058 36.7771 39.2107C36.9345 39.6129 37.0131 40.0923 37.0131 40.6488V41.1074H31.7058V40.0992H35.5504C35.5476 39.8127 35.4843 39.5579 35.3607 39.3347C35.237 39.1088 35.0642 38.9311 34.8422 38.8017C34.623 38.6722 34.3672 38.6074 34.0749 38.6074C33.763 38.6074 33.489 38.6818 33.2529 38.8306C33.0169 38.9766 32.8328 39.1694 32.7007 39.4091C32.5714 39.646 32.5054 39.9063 32.5026 40.1901V41.0702C32.5026 41.4394 32.5714 41.7562 32.7091 42.0207C32.8468 42.2824 33.0393 42.4835 33.2866 42.624C33.534 42.7617 33.8234 42.8306 34.155 42.8306C34.3771 42.8306 34.578 42.8003 34.7579 42.7397C34.9377 42.6763 35.0937 42.584 35.2258 42.4628C35.3579 42.3416 35.4576 42.1915 35.5251 42.0124L36.9499 42.1694C36.86 42.5386 36.6886 42.8609 36.4356 43.1364C36.1855 43.4091 35.8651 43.6212 35.4745 43.7727C35.0839 43.9215 34.637 43.9959 34.134 43.9959Z" fill="black"/>
<path d="M39.8302 35.4091V43.8719H38.3041V35.4091H39.8302Z" fill="black"/>
<path d="M44.4113 43.8719V35.4091H45.9753V42.5868H49.7777V43.8719H44.4113Z" fill="#E24CA6"/>
<path d="M51.0676 43.8719V37.5248H52.5936V43.8719H51.0676ZM51.8348 36.624C51.5932 36.624 51.3852 36.5455 51.2109 36.3884C51.0367 36.2286 50.9496 36.0372 50.9496 35.814C50.9496 35.5882 51.0367 35.3967 51.2109 35.2397C51.3852 35.0799 51.5932 35 51.8348 35C52.0793 35 52.2873 35.0799 52.4587 35.2397C52.633 35.3967 52.7201 35.5882 52.7201 35.814C52.7201 36.0372 52.633 36.2286 52.4587 36.3884C52.2873 36.5455 52.0793 36.624 51.8348 36.624Z" fill="#E24CA6"/>
<path d="M59.9465 37.5248L57.6406 43.8719H55.9544L53.6486 37.5248H55.2757L56.7638 42.2397H56.8313L58.3236 37.5248H59.9465Z" fill="#E24CA6"/>
<path d="M63.6488 43.9959C62.9996 43.9959 62.4389 43.8636 61.9668 43.5992C61.4975 43.332 61.1363 42.9545 60.8834 42.4669C60.6305 41.9766 60.504 41.3994 60.504 40.7355C60.504 40.0826 60.6305 39.5096 60.8834 39.0165C61.1392 38.5207 61.4961 38.135 61.9542 37.8595C62.4122 37.5813 62.9504 37.4421 63.5687 37.4421C63.9678 37.4421 64.3443 37.5055 64.6984 37.6322C65.0554 37.7562 65.3701 37.949 65.6427 38.2107C65.9181 38.4725 66.1345 38.8058 66.2919 39.2107C66.4493 39.6129 66.528 40.0923 66.528 40.6488V41.1074H61.2207V40.0992H65.0652C65.0624 39.8127 64.9991 39.5579 64.8755 39.3347C64.7518 39.1088 64.579 38.9311 64.357 38.8017C64.1378 38.6722 63.882 38.6074 63.5898 38.6074C63.2778 38.6074 63.0038 38.6818 62.7677 38.8306C62.5317 38.9766 62.3476 39.1694 62.2155 39.4091C62.0862 39.646 62.0202 39.9063 62.0174 40.1901V41.0702C62.0174 41.4394 62.0862 41.7562 62.2239 42.0207C62.3616 42.2824 62.5542 42.4835 62.8015 42.624C63.0488 42.7617 63.3382 42.8306 63.6699 42.8306C63.8919 42.8306 64.0928 42.8003 64.2727 42.7397C64.4525 42.6763 64.6085 42.584 64.7406 42.4628C64.8727 42.3416 64.9725 42.1915 65.0399 42.0124L66.4647 42.1694C66.3748 42.5386 66.2034 42.8609 65.9504 43.1364C65.7003 43.4091 65.3799 43.6212 64.9893 43.7727C64.5987 43.9215 64.1518 43.9959 63.6488 43.9959Z" fill="#E24CA6"/>
<path d="M69.1205 43.8719L67.291 37.5248H68.8465L69.9847 41.9876H70.0437L71.2072 37.5248H72.7458L73.9093 41.9628H73.9725L75.0939 37.5248H76.6536L74.8199 43.8719H73.2306L72.0166 39.5826H71.928L70.714 43.8719H69.1205Z" fill="#E24CA6"/>
<path d="M77.7191 43.8719V37.5248H79.2451V43.8719H77.7191ZM78.4863 36.624C78.2446 36.624 78.0366 36.5455 77.8624 36.3884C77.6882 36.2286 77.601 36.0372 77.601 35.814C77.601 35.5882 77.6882 35.3967 77.8624 35.2397C78.0366 35.0799 78.2446 35 78.4863 35C78.7308 35 78.9388 35.0799 79.1102 35.2397C79.2844 35.3967 79.3715 35.5882 79.3715 35.814C79.3715 36.0372 79.2844 36.2286 79.1102 36.3884C78.9388 36.5455 78.7308 36.624 78.4863 36.624Z" fill="#E24CA6"/>
<path d="M80.8143 43.8719V37.5248H82.2939V38.5826H82.3614C82.4794 38.2163 82.6818 37.9339 82.9684 37.7355C83.2579 37.5344 83.5881 37.4339 83.9591 37.4339C84.0434 37.4339 84.1375 37.438 84.2415 37.4463C84.3483 37.4518 84.4368 37.4614 84.5071 37.4752V38.8512C84.4424 38.8292 84.3399 38.8099 84.1993 38.7934C84.0616 38.7741 83.9281 38.7645 83.7989 38.7645C83.5207 38.7645 83.2705 38.8237 83.0485 38.9421C82.8293 39.0579 82.6565 39.219 82.53 39.4256C82.4035 39.6322 82.3403 39.8705 82.3403 40.1405V43.8719H80.8143Z" fill="#E24CA6"/>
<path d="M88.1208 43.9959C87.4716 43.9959 86.911 43.8636 86.4388 43.5992C85.9695 43.332 85.6084 42.9545 85.3554 42.4669C85.1025 41.9766 84.9761 41.3994 84.9761 40.7355C84.9761 40.0826 85.1025 39.5096 85.3554 39.0165C85.6112 38.5207 85.9681 38.135 86.4262 37.8595C86.8843 37.5813 87.4224 37.4421 88.0407 37.4421C88.4398 37.4421 88.8164 37.5055 89.1705 37.6322C89.5274 37.7562 89.8421 37.949 90.1147 38.2107C90.3902 38.4725 90.6066 38.8058 90.7639 39.2107C90.9213 39.6129 91 40.0923 91 40.6488V41.1074H85.6927V40.0992H89.5372C89.5344 39.8127 89.4712 39.5579 89.3475 39.3347C89.2239 39.1088 89.051 38.9311 88.829 38.8017C88.6098 38.6722 88.3541 38.6074 88.0618 38.6074C87.7498 38.6074 87.4758 38.6818 87.2398 38.8306C87.0037 38.9766 86.8196 39.1694 86.6875 39.4091C86.5583 39.646 86.4922 39.9063 86.4894 40.1901V41.0702C86.4894 41.4394 86.5583 41.7562 86.696 42.0207C86.8337 42.2824 87.0262 42.4835 87.2735 42.624C87.5208 42.7617 87.8103 42.8306 88.1419 42.8306C88.3639 42.8306 88.5648 42.8003 88.7447 42.7397C88.9246 42.6763 89.0805 42.584 89.2126 42.4628C89.3447 42.3416 89.4445 42.1915 89.5119 42.0124L90.9368 42.1694C90.8468 42.5386 90.6754 42.8609 90.4225 43.1364C90.1724 43.4091 89.852 43.6212 89.4613 43.7727C89.0707 43.9215 88.6239 43.9959 88.1208 43.9959Z" fill="#E24CA6"/>
<circle cx="15" cy="15" r="15" fill="#F52D21"/>
<g clip-path="url(#clip0_7_52)">
<path fill-rule="evenodd" clip-rule="evenodd" d="M14.6183 9.76529L11.6063 8.03355C11.5288 7.98882 11.4335 7.98882 11.3559 8.03355L8.34394 9.76529C8.2598 9.81184 8.21985 9.88538 8.21875 9.98262V20.2848C8.21875 20.3742 8.26699 20.4574 8.34451 20.5021L14.3691 23.9656C14.4562 24.0118 14.5293 24.0109 14.6189 23.9662L20.6435 20.5027C20.7216 20.458 20.7692 20.3754 20.7692 20.2854V16.9962L23.6555 15.3367C23.7336 15.292 23.7812 15.2094 23.7812 15.1194V11.6851C23.7812 11.6231 23.744 11.519 23.6532 11.4678L20.6412 9.73605C20.5637 9.69132 20.4683 9.69132 20.3908 9.73605L17.3788 11.4678C17.2967 11.5146 17.2536 11.5909 17.2536 11.6851V14.9743L14.7435 16.4176V9.98262C14.7435 9.90699 14.6991 9.80858 14.6183 9.76529ZM14.4897 19.9963L11.9842 18.5806L17.5023 15.4084L20.0101 16.85L14.4897 19.9963ZM20.2639 13.5619V16.4176L17.7532 14.9743V12.1186L20.2639 13.5619ZM20.5148 10.2424L23.0238 11.6851L20.5148 13.1279L18.0059 11.6851L20.5148 10.2424ZM11.7292 18.1493V11.8594L14.2399 10.4161V16.7055L11.7292 18.1493ZM11.4783 8.54045L13.9872 9.98319L11.4783 11.4259L8.96931 9.98319L11.4783 8.54045ZM14.7412 23.3148V20.4304L20.2639 17.2823V20.1397L14.7412 23.3148ZM20.7658 16.4176V13.5619L23.2765 12.1186V14.9743L20.7658 16.4176ZM14.241 20.4304L14.241 23.3142L8.71663 20.1397V10.4161L11.2273 11.8594L11.2273 18.7275L14.241 20.4304Z" fill="white"/>
</g>
<rect x="36" y="14" width="13.0241" height="6" fill="#D9D9D9"/>
<path d="M56 16.9517L48.1583 23.1723V11.048L56 16.9517Z" fill="#D9D9D9"/>
<defs>
<clipPath id="clip0_7_52">
<rect width="16" height="16" fill="white" transform="translate(8 8)"/>
</clipPath>
</defs>
</svg>
