<svg width="49" height="34" viewBox="0 0 49 34" fill="none" xmlns="http://www.w3.org/2000/svg">
<path d="M9.28608 0.110241C7.10057 0.530533 5.35402 1.40847 3.81296 2.87482C2.11312 4.49061 1.04838 6.43328 0.628088 8.71219C0.413272 9.84231 0.478651 12.1306 0.749505 13.1579C1.81424 17.1554 4.7843 20.0694 8.75371 20.994C9.19268 21.0968 9.70637 21.1808 9.9025 21.1808C10.4816 21.1808 10.5096 21.2369 10.4349 22.1708C10.2761 24.1042 9.54759 26.0749 8.14662 28.3351C7.68897 29.0823 7.58624 29.3158 7.6236 29.5306C7.67963 29.8015 9.2674 31.5106 10.9019 33.0517C11.6023 33.7055 11.7331 33.7896 12.0413 33.7896C12.3682 33.7896 12.4803 33.7055 13.7038 32.454C18.2243 27.8494 21.0262 21.7599 21.6987 15.0819C21.8574 13.4755 21.7547 10.0945 21.5212 8.94569C20.7273 5.15373 18.4858 2.23972 15.2449 0.820065C14.012 0.278358 12.9379 0.054203 11.3689 0.0168419C10.4255 -0.00183487 9.74373 0.0261841 9.28608 0.110241ZM13.3302 1.84744C16.4777 2.68803 18.9714 5.31251 19.812 8.68418C20.1109 9.86099 20.1856 10.6922 20.195 12.5882C20.195 16.6884 19.3731 20.3216 17.5892 24.0295C16.2816 26.7567 14.8526 28.8395 12.6484 31.2211L12.0133 31.9123L10.7337 30.6327L9.4542 29.3438L10.0613 28.2791C11.4623 25.8227 12.2281 22.9367 11.9853 21.0034C11.8358 19.7985 11.7705 19.7425 10.5656 19.6491C6.68028 19.3409 3.53276 16.8191 2.38397 13.0832C2.15981 12.336 2.13179 12.1212 2.13179 10.6736C2.12246 9.29126 2.15047 8.99239 2.33727 8.34794C2.78558 6.7882 3.47673 5.53666 4.49476 4.44391C5.76498 3.07096 7.58624 2.0716 9.50089 1.69801C10.4442 1.51121 12.3682 1.58593 13.3302 1.84744Z" fill="#4A00E6"/>
<path d="M35.765 0.119766C34.3546 0.390621 32.8976 0.979031 31.6835 1.76357C30.4226 2.58547 28.8255 4.39739 28.097 5.84506C26.9202 8.16133 26.6867 11.2528 27.4899 13.8493C28.62 17.5385 32.0757 20.5366 35.8397 21.0876C37.1846 21.2837 37.0445 21.1623 36.9791 22.1056C36.839 23.9923 36.0358 26.1871 34.7096 28.2979C33.8783 29.6055 33.8036 29.4187 36.1759 31.791C38.6883 34.2941 38.4361 34.2287 39.9212 32.781C43.9933 28.8116 46.8606 23.3105 47.9347 17.3984C48.1682 16.0908 48.3083 14.2882 48.3083 12.5043C48.3083 9.59032 48.0094 7.98388 47.0941 6.07856C45.6745 3.08982 43.3022 1.10044 40.2014 0.287884C39.0432 -0.0109901 36.9044 -0.095047 35.765 0.119766ZM39.8278 1.82895C43.1901 2.72557 45.6184 5.40609 46.4964 9.19805C46.7019 10.0853 46.7859 13.7652 46.6271 15.2035C46.2722 18.5939 45.3849 21.5453 43.8159 24.6461C42.6764 26.9063 41.3968 28.7556 39.5289 30.857L38.5669 31.9405L37.2687 30.6422L35.9611 29.3347L36.344 28.7182C37.2593 27.2145 38.0345 25.3092 38.3614 23.6934C38.5669 22.7127 38.6042 20.8168 38.4268 20.3124C38.2493 19.8361 38.0252 19.7147 37.1005 19.6493C33.9344 19.3971 31.1698 17.6319 29.6754 14.9047C28.8815 13.4477 28.5453 11.9159 28.6293 10.132C28.8255 5.86374 32.0664 2.32396 36.4001 1.63282C37.0725 1.52074 39.1179 1.64215 39.8278 1.82895Z" fill="#4A00E6"/>
</svg>
