<svg width="40" height="40" viewBox="0 0 40 40" fill="none" xmlns="http://www.w3.org/2000/svg">
<path d="M0.625 23.0282V29.0626C0.625 32.4032 9.29688 35.1095 20 35.1095V29.0626C9.29688 29.0626 0.625 26.3626 0.625 23.0282ZM20 16.9814L35.1562 20.7314C37.7937 19.7001 39.3781 18.3876 39.3781 16.9814V10.9376C39.3781 7.60012 30.7031 4.89075 20.0031 4.89075C9.30313 4.89075 0.625 7.59075 0.625 10.9376V16.9814C0.625 20.3126 9.29688 23.0282 20 23.0282V16.9814ZM35.1531 26.7939L20 23.0282V29.0626L35.1562 32.8282C37.7906 31.8064 39.375 30.497 39.375 29.0626V23.0282C39.375 24.4501 37.7906 25.7595 35.1531 26.7939Z" fill="#D43D44"/>
</svg>
